HIERARCHY
ROOT RootJoint
{
    OFFSET   0.000000   0.000000   0.000000
    CHANNELS 6 Xposition Yposition Zposition Xrotation Yrotation Zrotation
    JOINT pelvis_lowerback
    {
        OFFSET   0.000000   0.093605   0.000000
        CHANNELS 3 Xrotation Yrotation Zrotation
        JOINT lowerback_torso
        {
            OFFSET   0.000000   0.100000   0.000000
            CHANNELS 3 Xrotation Yrotation Zrotation
            JOINT torso_head
            {
                OFFSET   0.000000   0.282350   0.000000
                CHANNELS 3 Xrotation Yrotation Zrotation
                End Site
                {
                    OFFSET   0.000000   0.192650   0.000000
                }
            }
            JOINT rTorso_Clavicle
            {
                OFFSET  -0.001000   0.157500   0.000000
                CHANNELS 3 Xrotation Yrotation Zrotation
                JOINT rShoulder
                {
                    OFFSET  -0.117647   0.000000   0.000000
                    CHANNELS 3 Xrotation Yrotation Zrotation
                    JOINT rElbow
                    {
                        OFFSET  -0.245000   0.000000   0.000000
                        CHANNELS 3 Xrotation Yrotation Zrotation
                        JOINT rWrist
                        {
                            OFFSET  -0.240000   0.000000   0.000000
                            CHANNELS 3 Xrotation Yrotation Zrotation
                            End Site
                            {
                                OFFSET  -0.116353  -0.002500   0.000000
                            }
                        }
                    }
                }
            }
            JOINT lTorso_Clavicle
            {
                OFFSET   0.001000   0.157500   0.000000
                CHANNELS 3 Xrotation Yrotation Zrotation
                JOINT lShoulder
                {
                    OFFSET   0.117647   0.000000   0.000000
                    CHANNELS 3 Xrotation Yrotation Zrotation
                    JOINT lElbow
                    {
                        OFFSET   0.245000   0.000000   0.000000
                        CHANNELS 3 Xrotation Yrotation Zrotation
                        JOINT lWrist
                        {
                            OFFSET   0.240000   0.000000   0.000000
                            CHANNELS 3 Xrotation Yrotation Zrotation
                            End Site
                            {
                                OFFSET   0.116353  -0.002500   0.000000
                            }
                        }
                    }
                }
            }
        }
    }
    JOINT rHip
    {
        OFFSET  -0.100000  -0.051395   0.000000
        CHANNELS 3 Xrotation Yrotation Zrotation
        JOINT rKnee
        {
            OFFSET   0.000000  -0.410000   0.000000
            CHANNELS 3 Xrotation Yrotation Zrotation
            JOINT rAnkle
            {
                OFFSET   0.000000  -0.390000   0.000000
                CHANNELS 3 Xrotation Yrotation Zrotation
                JOINT rToeJoint
                {
                    OFFSET   0.000000  -0.050000   0.130000
                    CHANNELS 3 Xrotation Yrotation Zrotation
                    End Site
                    {
                        OFFSET  -0.010000   0.002000   0.060000
                    }
                }
            }
        }
    }
    JOINT lHip
    {
        OFFSET   0.100000  -0.051395   0.000000
        CHANNELS 3 Xrotation Yrotation Zrotation
        JOINT lKnee
        {
            OFFSET   0.000000  -0.410000   0.000000
            CHANNELS 3 Xrotation Yrotation Zrotation
            JOINT lAnkle
            {
                OFFSET   0.000000  -0.390000   0.000000
                CHANNELS 3 Xrotation Yrotation Zrotation
                JOINT lToeJoint
                {
                    OFFSET   0.000000  -0.050000   0.130000
                    CHANNELS 3 Xrotation Yrotation Zrotation
                    End Site
                    {
                        OFFSET   0.010000   0.002000   0.060000
                    }
                }
            }
        }
    }
}
MOTION
Frames: 14
Frame Time:   0.008333
 -2.376719   0.925631   3.975860   0.000000   0.000000   0.000000   0.000000   0.000000   0.000000   0.000000   0.000000   0.000000   0.000000   0.000000   0.000000   0.000000   0.000000   0.000000   0.000000   0.000000   0.000000   0.000000   0.000000   0.000000   0.000000   0.000000   0.000000   0.000000   0.000000   0.000000   0.000000   0.000000   0.000000   0.000000   0.000000   0.000000   0.000000   0.000000   0.000000   0.000000   0.000000   0.000000   0.000000   0.000000   0.000000   0.000000   0.000000   0.000000   0.000000   0.000000   0.000000   0.000000   0.000000   0.000000   0.000000   0.000000   0.000000   0.000000   0.000000   0.000000   0.000000   0.000000   0.000000
 -2.376523   0.926063   3.976199   0.006584   0.182066   0.014110  -0.162615  -0.062823  -0.004791   0.141140  -0.172511   0.033591   0.007088   0.083556  -0.032428   0.213301  -0.386266   0.080339   0.637507   0.185006   2.214377   0.024223   1.181009  -0.008811   0.377138  -0.369568  -2.685483   0.210927   0.360632  -0.201789   1.117065  -0.106696  -2.127928   0.023357  -1.161697   0.013504   0.445452   0.345761   2.445874  -0.113109   0.035121  -0.197489   0.509829   0.000819   0.000962  -0.692333  -0.306069  -0.001335  -0.135165  -0.000215   0.000104  -0.168462  -0.310090   0.113921   0.663469  -0.000750  -0.000736  -0.875610   0.043133   0.121246   0.295288  -0.000642  -0.000218
 -2.376253   0.926831   3.976762  -0.016912   0.394246   0.024697  -0.353346  -0.143750   0.006264   0.275166  -0.367353   0.076866   0.026617   0.163069  -0.060934   0.420699  -0.746751   0.831536   1.253034   0.416177   4.961949   0.055410   2.323082  -0.014569   0.785475  -0.406292  -4.687844   0.422460   0.670054  -1.075095   2.209907  -0.294942  -4.797477   0.053548  -2.287105   0.023033   0.934259   0.370224   4.182470  -0.189045   0.072712  -0.534967   1.059092   0.002245   0.001935  -1.340988  -0.595434  -0.007672  -0.300746  -0.000648   0.000135  -0.259894  -0.607555   0.346239   1.367876  -0.002120  -0.001075  -1.696343   0.082537   0.235487   0.520851  -0.001219  -0.000260
 -2.375940   0.927558   3.977477  -0.039017   0.608698   0.030308  -0.566940  -0.234405   0.028830   0.375945  -0.566679   0.127678   0.041319   0.237388  -0.085817   0.619894  -1.069875   2.002159   1.843774   0.682495   8.056685   0.085659   3.393482  -0.017730   1.182076  -0.359054  -5.916318   0.625535   0.927126  -2.359179   3.272612  -0.558037  -7.815821   0.082901  -3.346069   0.029120   1.408719   0.291701   5.153219  -0.255215   0.107701  -0.980812   1.587161   0.003865   0.002626  -1.946090  -0.866917  -0.017633  -0.457827  -0.001130   0.000129  -0.299477  -0.882576   0.679582   2.049923  -0.003745  -0.001134  -2.462133   0.119612   0.343413   0.721951  -0.001762  -0.000241
 -2.375603   0.927968   3.978292  -0.053993   0.812278   0.031630  -0.794381  -0.330053   0.059592   0.446157  -0.764583   0.184247   0.049929   0.306841  -0.108160   0.814317  -1.363687   3.416404   2.411818   0.981942  11.385407   0.111526   4.392492  -0.019136   1.560602  -0.293799  -6.566806   0.821504   1.146499  -3.875703   4.306397  -0.893830 -11.065451   0.108047  -4.338504   0.032821   1.863351   0.171202   5.563747  -0.320726   0.139975  -1.511151   2.083016   0.005430   0.003009  -2.511262  -1.121495  -0.030461  -0.606898  -0.001602   0.000114  -0.299978  -1.137035   1.095172   2.699884  -0.005388  -0.001057  -3.177129   0.154368   0.445413   0.901390  -0.002224  -0.000208
 -2.375254   0.927859   3.979170  -0.062265   0.997870   0.029642  -1.028112  -0.428100   0.096427   0.493037  -0.958346   0.245141   0.054074   0.371729  -0.128579   1.005854  -1.634951   4.956469   2.957707   1.312548  14.870466   0.131740   5.323049  -0.019401   1.919462  -0.231401  -6.822674   1.011020   1.338607  -5.506486   5.310315  -1.299645 -14.466415   0.127735  -5.266748   0.034917   2.297009   0.031497   5.599833  -0.388598   0.170128  -2.106216   2.545557   0.006806   0.003130  -3.039291  -1.360058  -0.045509  -0.747690  -0.002026   0.000103  -0.268920  -1.372787   1.575543   3.317013  -0.006909  -0.000931  -3.844698   0.186779   0.541769   1.062148  -0.002586  -0.000180
 -2.374923   0.927065   3.980081  -0.065576   1.162243   0.026603  -1.262172  -0.526702   0.134593   0.523677  -1.146187   0.302451   0.055168   0.432271  -0.145438   1.196821  -1.888158   6.574432   3.469305   1.665143  18.394212   0.145896   6.189342  -0.018864   2.259078  -0.176182  -6.774881   1.196374   1.510554  -7.223771   6.236600  -1.751438 -17.829833   0.141308  -6.135234   0.035599   2.710933  -0.126100   5.318480  -0.459905   0.198774  -2.748799   2.975965   0.007919   0.003052  -3.532718  -1.583487  -0.062262  -0.880453  -0.002381   0.000099  -0.212110  -1.591354   2.105643   3.902277  -0.008236  -0.000797  -4.467963   0.216844   0.632701   1.206460  -0.002847  -0.000163
 -2.374545   0.924833   3.980540   0.056414   1.237103  -0.001653  -1.468186  -0.575810   0.241430   0.479040  -1.321258   0.334745  -0.017847   0.398697  -0.179380   1.420668  -2.080618   7.578323   4.094245   2.050372  21.662849   0.158268   7.236431  -0.021154   2.548552  -0.126236  -5.563029   1.518947   1.700560  -8.145480   7.044478  -2.293267 -21.257524   0.149017  -7.061046   0.037566   3.079013  -0.462786   4.001089  -0.785527   0.025055  -3.315791   3.582237   0.009461   0.001607  -3.804583  -1.871558   0.110384  -0.842987  -0.001764  -0.000046  -0.203949  -1.696802   2.601021   3.897176  -0.006568  -0.000640  -4.749910   0.215886   0.664701   1.378689  -0.003027  -0.000164
 -2.374155   0.921398   3.980728   0.187525   1.315857  -0.031954  -1.613075  -0.627582   0.355724   0.451127  -1.484862   0.369816  -0.090759   0.362285  -0.210024   1.620333  -2.232360   8.298958   4.650011   2.458036  24.564769   0.160535   8.227581  -0.022718   2.842653   0.016133  -4.457204   1.811997   1.858909  -8.799110   7.765202  -2.846594 -24.320490   0.148437  -7.933767   0.038456   3.435493  -0.873082   2.757714  -1.118454  -0.149403  -3.828805   4.156743   0.010242   0.000476  -4.052835  -2.144385   0.269938  -0.779659  -0.001196  -0.000242  -0.260124  -1.796478   3.041024   3.794861  -0.004886  -0.000527  -5.016100   0.214010   0.694145   1.543687  -0.003054  -0.000147
 -2.373635   0.920425   3.981181   0.236995   1.398449   0.411244  -1.723989  -0.669286   0.097980   0.459376  -1.632606   0.244908  -0.143518   0.327872  -0.250697   1.806682  -2.363996   9.081984   5.145708   2.870368  27.278563   0.158613   9.152146  -0.023100   3.128622   0.157304  -3.602828   2.081346   2.003349  -9.445673   8.408971  -3.390016 -27.119413   0.144289  -8.739528   0.037871   3.773006  -1.225113   1.811068  -1.322453  -0.310375  -4.715823   4.691936   0.010213  -0.000328  -4.275133  -2.402832   0.415258  -0.651148  -0.000614  -0.000591  -0.465795  -1.761309   2.559242   4.037427  -0.003825  -0.000149  -4.710711   0.318245   0.505257   1.748692  -0.002045   0.000278
 -2.373675   0.920296   3.981772   0.274713   1.326382   0.455594  -1.820805  -0.650365   0.190815   0.475212  -1.722607   0.239922  -0.191860   0.297389  -0.288629   1.973064  -2.468687   9.687721   5.586114   3.284746  29.747569   0.152557  10.020118  -0.022598   3.403052   0.320538  -2.818802   2.341704   2.155785 -10.008409   8.990101  -3.918070 -29.736132   0.137154  -9.493325   0.036532   4.089555  -1.571732   0.898229  -1.633144  -0.530133  -4.817919   5.234115   0.008305  -0.001862  -4.353797  -2.705282   0.679616  -0.541672  -0.000677  -0.001068  -0.514560  -1.808858   2.507577   4.161646  -0.003062  -0.000242  -4.775529   0.329472   0.492482   1.937829  -0.001607   0.000049
 -2.373788   0.920201   3.982408   0.329424   1.296911   0.503869  -1.918301  -0.655086   0.266135   0.484459  -1.815338   0.251500  -0.238708   0.267479  -0.314623   2.128674  -2.570416  10.148589   5.981757   3.683852  31.995257   0.143494  10.832273  -0.021629   3.665015   0.493118  -2.138029   2.584264   2.300384 -10.431143   9.512934  -4.427301 -32.122556   0.127729 -10.197573   0.034583   4.388330  -1.913620   0.067457  -1.917810  -0.677302  -4.900224   5.733381   0.006682  -0.002427  -4.505763  -2.926824   0.816857  -0.467752  -0.000606  -0.001127  -0.550502  -1.884792   2.454661   4.228945  -0.002452  -0.000253  -4.886757   0.324224   0.506105   2.084139  -0.001300  -0.000099
 -2.373958   0.920112   3.983052   0.397149   1.305654   0.556182  -2.008355  -0.668439   0.337446   0.490709  -1.909196   0.265005  -0.283771   0.239066  -0.337662   2.274239  -2.669372  10.503818   6.338047   4.063541  34.040235   0.132757  11.589133  -0.020465   3.914508   0.654996  -1.582807   2.806717   2.434129 -10.750439   9.982218  -4.915897 -34.295094   0.117140 -10.854200   0.032231   4.670957  -2.237591  -0.636852  -2.184653  -0.806376  -4.979017   6.189297   0.005357  -0.002553  -4.657811  -3.129888   0.938390  -0.406181  -0.000536  -0.001088  -0.591219  -1.958792   2.403407   4.268575  -0.001964  -0.000224  -5.002839   0.317952   0.520830   2.213169  -0.001061  -0.000158
 -2.374241   0.920066   3.983798   0.456895   1.330447   0.592494  -2.059999  -0.673451   0.349224   0.468713  -1.940925   0.348048  -0.299192   0.144205  -0.360102   2.384491  -2.846313  10.532616   6.696890   4.408351  35.599716   0.119140  12.370404  -0.019323   4.120154   0.909849  -0.418144   3.007548   2.566198 -10.704149  10.294485  -5.397945 -36.151370   0.105483 -11.560449   0.029309   4.928653  -2.577534  -1.807838  -2.292696  -0.927422  -5.018431   6.348859   0.004264  -0.002197  -4.612151  -3.190677   0.993570  -0.217959  -0.000511  -0.001143  -0.543101  -2.015438   2.380054   4.146963  -0.001557  -0.000145  -5.010715   0.323612   0.556543   2.278413  -0.000876  -0.000142
